<?xml version="1.0" encoding="UTF-8"?>
<!DOCTYPE svg PUBLIC "-//W3C//DTD SVG 1.1//EN" "http://www.w3.org/Graphics/SVG/1.1/DTD/svg11.dtd">
<svg xmlns="http://www.w3.org/2000/svg" version="1.1" width="1400px" height="924px" style="shape-rendering:geometricPrecision; text-rendering:geometricPrecision; image-rendering:optimizeQuality; fill-rule:evenodd; clip-rule:evenodd" xmlns:xlink="http://www.w3.org/1999/xlink">
<g><path style="opacity:0.989" fill="#000000" d="M 368.5,480.5 C 385.93,441.313 403.597,402.313 421.5,363.5C 472.167,363.5 522.833,363.5 573.5,363.5C 608.766,282.963 644.6,202.63 681,122.5C 722.433,121.17 763.933,121.17 805.5,122.5C 715.833,321.833 626.167,521.167 536.5,720.5C 495.167,721.833 453.833,721.833 412.5,720.5C 448.371,640.592 484.371,560.759 520.5,481C 469.834,480.5 419.168,480.333 368.5,480.5 Z"/></g>
<g><path style="opacity:0.995" fill="#000000" d="M 1063.5,364.5 C 1023.17,363.833 982.833,363.167 942.5,362.5C 940.929,356.77 938.596,351.437 935.5,346.5C 933.929,340.77 931.596,335.437 928.5,330.5C 926.929,324.77 924.596,319.437 921.5,314.5C 921.293,311.759 920.293,309.426 918.5,307.5C 917.958,304.088 916.625,301.088 914.5,298.5C 914.293,295.759 913.293,293.426 911.5,291.5C 909.929,285.77 907.596,280.437 904.5,275.5C 902.929,269.77 900.596,264.437 897.5,259.5C 897.293,256.759 896.293,254.426 894.5,252.5C 894.719,251.325 894.386,250.325 893.5,249.5C 892.893,249.624 892.56,249.957 892.5,250.5C 862.972,317.751 833.639,385.084 804.5,452.5C 802.952,452.821 802.285,453.821 802.5,455.5C 801.833,457.5 801.167,459.5 800.5,461.5C 798.952,461.821 798.285,462.821 798.5,464.5C 798.167,465.833 797.833,467.167 797.5,468.5C 795.952,468.821 795.285,469.821 795.5,471.5C 794.222,475.667 792.556,479.667 790.5,483.5C 788.461,484.911 787.461,486.911 787.5,489.5C 786.925,492.912 785.592,495.912 783.5,498.5C 760.071,549.77 737.404,601.437 715.5,653.5C 713.375,656.088 712.042,659.088 711.5,662.5C 702.885,682.062 694.551,701.729 686.5,721.5C 645.167,721.5 603.833,721.5 562.5,721.5C 651.541,521.747 740.874,322.081 830.5,122.5C 872.167,121.167 913.833,121.167 955.5,122.5C 991.7,203.107 1027.7,283.774 1063.5,364.5 Z"/></g>
<g><path style="opacity:1" fill="#868685" d="M 421.5,363.5 C 403.597,402.313 385.93,441.313 368.5,480.5C 332.953,560.597 297.12,640.597 261,720.5C 219.906,721.497 178.739,721.83 137.5,721.5C 226.541,521.747 315.874,322.081 405.5,122.5C 447.163,121.333 488.829,121.167 530.5,122C 494.024,202.451 457.69,282.951 421.5,363.5 Z"/></g>
<g><path style="opacity:0.98" fill="#797976" d="M 892.5,250.5 C 892.56,249.957 892.893,249.624 893.5,249.5C 894.386,250.325 894.719,251.325 894.5,252.5C 893.833,251.833 893.167,251.167 892.5,250.5 Z"/></g>
<g><path style="opacity:0.533" fill="#838382" d="M 894.5,252.5 C 896.293,254.426 897.293,256.759 897.5,259.5C 895.707,257.574 894.707,255.241 894.5,252.5 Z"/></g>
<g><path style="opacity:0.714" fill="#858584" d="M 897.5,259.5 C 900.596,264.437 902.929,269.77 904.5,275.5C 901.404,270.563 899.071,265.23 897.5,259.5 Z"/></g>
<g><path style="opacity:0.729" fill="#838382" d="M 904.5,275.5 C 907.596,280.437 909.929,285.77 911.5,291.5C 908.404,286.563 906.071,281.23 904.5,275.5 Z"/></g>
<g><path style="opacity:0.514" fill="#888887" d="M 911.5,291.5 C 913.293,293.426 914.293,295.759 914.5,298.5C 912.707,296.574 911.707,294.241 911.5,291.5 Z"/></g>
<g><path style="opacity:0.694" fill="#7f7f7e" d="M 914.5,298.5 C 916.625,301.088 917.958,304.088 918.5,307.5C 916.375,304.912 915.042,301.912 914.5,298.5 Z"/></g>
<g><path style="opacity:0.529" fill="#888887" d="M 918.5,307.5 C 920.293,309.426 921.293,311.759 921.5,314.5C 919.707,312.574 918.707,310.241 918.5,307.5 Z"/></g>
<g><path style="opacity:0.478" fill="#8c8c8c" d="M 921.5,314.5 C 924.596,319.437 926.929,324.77 928.5,330.5C 925.404,325.563 923.071,320.23 921.5,314.5 Z"/></g>
<g><path style="opacity:0.486" fill="#8c8c8b" d="M 928.5,330.5 C 931.596,335.437 933.929,340.77 935.5,346.5C 932.404,341.563 930.071,336.23 928.5,330.5 Z"/></g>
<g><path style="opacity:0.51" fill="#8a8a89" d="M 935.5,346.5 C 938.596,351.437 940.929,356.77 942.5,362.5C 939.404,357.563 937.071,352.23 935.5,346.5 Z"/></g>
<g><path style="opacity:1" fill="#868685" d="M 942.5,362.5 C 982.833,363.167 1023.17,363.833 1063.5,364.5C 1116.42,483.5 1169.75,602.333 1223.5,721C 1181.91,720.844 1140.24,720.344 1098.5,719.5C 1081.69,682.711 1065.02,645.877 1048.5,609C 944.498,608.167 840.498,608.333 736.5,609.5C 729.479,624.27 722.479,638.936 715.5,653.5C 737.404,601.437 760.071,549.77 783.5,498.5C 783.5,499.5 783.5,500.5 783.5,501.5C 856.404,501.169 929.238,501.502 1002,502.5C 982.488,455.797 962.655,409.13 942.5,362.5 Z"/></g>
<g><path style="opacity:0.459" fill="#878787" d="M 804.5,452.5 C 804.068,453.71 803.401,454.71 802.5,455.5C 802.285,453.821 802.952,452.821 804.5,452.5 Z"/></g>
<g><path style="opacity:0.518" fill="#7a7a79" d="M 800.5,461.5 C 800.068,462.71 799.401,463.71 798.5,464.5C 798.285,462.821 798.952,461.821 800.5,461.5 Z"/></g>
<g><path style="opacity:0.471" fill="#8e8e8d" d="M 797.5,468.5 C 797.068,469.71 796.401,470.71 795.5,471.5C 795.285,469.821 795.952,468.821 797.5,468.5 Z"/></g>
<g><path style="opacity:0.475" fill="#7f7f7e" d="M 790.5,483.5 C 790.008,485.819 789.008,487.819 787.5,489.5C 787.461,486.911 788.461,484.911 790.5,483.5 Z"/></g>
<g><path style="opacity:0.475" fill="#898988" d="M 715.5,653.5 C 714.958,656.912 713.625,659.912 711.5,662.5C 712.042,659.088 713.375,656.088 715.5,653.5 Z"/></g>
</svg>
