<svg width="120.000000" height="120.000000" viewBox="0 0 120 120" fill="none" xmlns="http://www.w3.org/2000/svg"
     xmlns:xlink="http://www.w3.org/1999/xlink">
    <g id="html5">
        <defs>
            <clipPath id="clip2_5710">
                <rect width="120.000000" height="120.000000" fill="white" fill-opacity="0"/>
            </clipPath>
        </defs>
        <rect width="120.000000" height="120.000000" fill="#FFFFFF" fill-opacity="0"/>
        <g clip-path="url(#clip2_5710)">
            <path d="M22.1323 102.004L13.7061 7.5L106.293 7.5L97.856 101.989L59.9434 112.5L22.1323 102.004Z"
                  fill="#2D2C2C" fill-opacity="1.000000" fill-rule="nonzero"/>
            <path d="M60 104.468L90.6377 95.9738L97.8452 15.2288L60 15.2288L60 104.468Z" fill="#2D2C2C"
                  fill-opacity="1.000000" fill-rule="nonzero"/>
            <path d="M60 50.2762L44.6626 50.2762L43.605 38.4074L60 38.4074L60 26.8162L30.9375 26.8162L31.2148 29.9286L34.061 61.8674L60 61.8674L60 50.2762ZM60 80.3774L59.9473 80.3924L47.04 76.9087L46.2148 67.6649L34.5786 67.6649L36.2026 85.8599L59.9473 92.4524L60 92.4374L60 80.3774Z"
                  fill="#EBEBEB" fill-opacity="1.000000" fill-rule="nonzero"/>
            <path d="M59.959 50.2762L59.959 61.8674L74.2314 61.8674L72.8892 76.9012L59.959 80.3887L59.959 92.4487L83.7227 85.8599L83.895 83.9024L86.6177 53.3887L86.9028 50.2762L59.959 50.2762ZM59.959 26.8162L59.959 38.4074L87.9565 38.4074L88.189 35.8049L88.7178 29.9286L88.9951 26.8162L59.959 26.8162Z"
                  fill="#EBEBEB" fill-opacity="1.000000" fill-rule="nonzero"/>
        </g>
    </g>
    <g id="css3">
        <defs>
            <clipPath id="clip2_5703">
                <rect width="120.000000" height="119.000000" fill="white" fill-opacity="0"/>
            </clipPath>
        </defs>
        <rect width="120.000000" height="119.000000" fill="#FFFFFF" fill-opacity="0"/>
        <g clip-path="url(#clip2_5703)">
            <path d="M22.1326 101.154L13.71 7.4375L106.29 7.4375L97.8562 101.139L59.9436 111.562L22.1326 101.154Z"
                  fill="#2D2C2C" fill-opacity="1.000000" fill-rule="nonzero"/>
            <path d="M60 103.597L90.6375 95.174L97.845 15.1018L60 15.1018L60 103.597Z" fill="#2D2C2C"
                  fill-opacity="1.000000" fill-rule="nonzero"/>
            <path d="M60 49.0541L75.3374 49.0541L76.395 37.2842L60 37.2842L60 25.7896L89.0625 25.7896L88.7849 28.8724L85.9387 60.5487L60 60.5487L60 49.0541Z"
                  fill="#EBEBEB" fill-opacity="1.000000" fill-rule="nonzero"/>
            <path d="M60.071 78.9045L60.0186 78.9194L47.1111 75.4609L46.2861 66.2942L34.6499 66.2942L36.2737 84.3413L60.0149 90.8788L60.071 90.864L60.071 78.9045Z"
                  fill="#EBEBEB" fill-opacity="1.000000" fill-rule="nonzero"/>
            <path d="M74.3513 60.0615L72.9563 75.4534L60.03 78.9119L60.03 90.8714L83.79 84.3412L83.9663 82.4001L85.98 60.0615L74.3513 60.0615Z"
                  fill="#EBEBEB" fill-opacity="1.000000" fill-rule="nonzero"/>
            <path d="M60.041 25.7896L60.041 37.2842L32.0437 37.2842L31.811 34.6997L31.2825 28.8724L31.0049 25.7896L60.041 25.7896ZM60 49.0541L60 60.5487L47.2537 60.5487L47.0212 57.9642L46.4961 52.1369L46.2188 49.0541L60 49.0541Z"
                  fill="#EBEBEB" fill-opacity="1.000000" fill-rule="nonzero"/>
        </g>
    </g>
    <g id="react">
        <defs>
            <clipPath id="clip2_5687">
                <rect width="113.000000" height="101.000000" fill="white" fill-opacity="0"/>
            </clipPath>
        </defs>
        <rect width="113.000000" height="101.000000" fill="#FFFFFF" fill-opacity="0"/>
        <g clip-path="url(#clip2_5687)">
            <path d="M92.9055 32.7026C91.7029 32.2886 90.4902 31.905 89.2686 31.5522C89.4739 30.7106 89.6626 29.8791 89.8303 29.0623C92.5837 15.6483 90.7837 4.84174 84.636 1.28369C78.7415 -2.12726 69.1016 1.42944 59.3657 9.93335C58.4062 10.7729 57.468 11.6368 56.552 12.5239C55.9387 11.934 55.3147 11.3555 54.6802 10.7888C44.4766 1.69611 34.2493 -2.13611 28.1079 1.43207C22.2188 4.8537 20.4749 15.0126 22.9536 27.7253C23.2002 28.9844 23.4788 30.2369 23.7888 31.4818C22.3411 31.8947 20.9441 32.3341 19.6072 32.8019C7.64429 36.988 0.00463867 43.5482 0.00463867 50.3528C0.00463867 57.3807 8.20605 64.4299 20.666 68.7043C21.6763 69.0494 22.6948 69.3691 23.7207 69.6633C23.3875 71.0041 23.0918 72.3539 22.8335 73.7113C20.4705 86.2034 22.3159 96.1223 28.1892 99.5222C34.2554 103.033 44.4368 99.4247 54.3506 90.7267C55.1543 90.0196 55.9404 89.2924 56.7083 88.5459C57.7002 89.5065 58.7188 90.4392 59.7625 91.3429C69.366 99.6364 78.8501 102.985 84.7175 99.5762C90.7781 96.0549 92.7478 85.3994 90.1907 72.4355C89.989 71.4199 89.7632 70.4093 89.5132 69.4047C90.228 69.192 90.9299 68.9732 91.614 68.7455C104.567 64.4384 112.995 57.4747 112.995 50.3528C112.995 43.5234 105.109 36.9189 92.9055 32.7026ZM90.0962 64.1473C89.4783 64.3524 88.8445 64.5504 88.1982 64.7432C86.7683 60.1995 84.8386 55.3683 82.4768 50.3763C84.7305 45.5035 86.5859 40.7339 87.9758 36.22C89.1318 36.5557 90.2532 36.9097 91.3347 37.2831C101.791 40.8961 108.168 46.2371 108.168 50.3528C108.168 54.7366 101.281 60.4276 90.0962 64.1473ZM85.4556 73.3764C86.5864 79.1086 86.7476 84.2915 85.9985 88.3434C85.3259 91.9843 83.9727 94.4114 82.2988 95.3838C78.7383 97.4525 71.1235 94.7636 62.9109 87.6706C61.9399 86.8304 60.9927 85.9633 60.0698 85.0703C63.2539 81.5756 66.4355 77.513 69.541 73.0008C75.0034 72.5144 80.1641 71.7188 84.8438 70.6331C85.0693 71.5425 85.2732 72.4573 85.4556 73.3764ZM38.5256 95.0263C35.0466 96.2592 32.2759 96.2946 30.6008 95.3253C27.0369 93.2623 25.5552 85.298 27.5762 74.615C27.8164 73.3526 28.0916 72.0972 28.4011 70.8501C33.0293 71.8778 38.1523 72.6167 43.6274 73.0624C46.7542 77.4775 50.0278 81.5357 53.3269 85.0893C52.6257 85.7703 51.908 86.4337 51.1743 87.0792C46.7903 90.9252 42.3972 93.6539 38.5256 95.0263ZM22.2275 64.1203C16.718 62.2301 12.168 59.7737 9.04907 57.0933C6.24658 54.6848 4.83179 52.2931 4.83179 50.3528C4.83179 46.2234 10.9656 40.9563 21.196 37.3766C22.4377 36.9424 23.7371 36.5327 25.0854 36.1482C26.4995 40.764 28.3542 45.5903 30.5925 50.4707C28.3252 55.4232 26.4441 60.3266 25.0161 64.9969C24.0796 64.7277 23.1499 64.4354 22.2275 64.1203ZM27.6909 26.7946C25.5674 15.903 26.9775 7.68701 30.5266 5.62494C34.3066 3.42859 42.6653 6.56006 51.4753 14.4115C52.0498 14.9246 52.615 15.4482 53.1707 15.9819C49.8877 19.52 46.6443 23.548 43.5454 27.9371C38.2312 28.4314 33.1445 29.2252 28.4678 30.2888C28.1794 29.131 27.9204 27.966 27.6909 26.795L27.6909 26.7946ZM76.4299 38.8738C75.3254 36.9588 74.1797 35.0679 72.9939 33.2023C76.5991 33.6599 80.0532 34.2673 83.2969 35.0097C82.3232 38.1425 81.1094 41.4175 79.6807 44.7753C78.6365 42.7866 77.5525 40.8191 76.4299 38.8738ZM56.5542 19.4442C58.7805 21.8651 61.0103 24.5677 63.2034 27.5002C58.7544 27.2894 54.2981 27.2885 49.8489 27.4976C52.0444 24.5921 54.2932 21.893 56.5542 19.4442ZM36.551 38.907C35.4424 40.8366 34.3789 42.7919 33.3611 44.7712C31.9558 41.4254 30.7532 38.1354 29.771 34.9583C32.9949 34.2345 36.4326 33.6426 40.0149 33.1935C38.8157 35.0704 37.6609 36.9753 36.551 38.9066L36.551 38.907ZM40.1177 67.8569C36.4167 67.4423 32.9272 66.881 29.7043 66.1766C30.7019 62.9429 31.9312 59.5828 33.3669 56.1652C34.3887 58.1461 35.4565 60.1025 36.5698 62.033C37.7148 64.0175 38.9004 65.9614 40.1177 67.8569ZM56.6875 81.6026C54.3994 79.1254 52.1177 76.3847 49.8892 73.4371C52.0527 73.5222 54.2583 73.5656 56.5 73.5656C58.803 73.5656 61.0796 73.5137 63.3206 73.4136C61.1201 76.4144 58.8987 79.1591 56.6875 81.6026ZM79.7261 55.9907C81.2366 59.4459 82.5095 62.7883 83.5203 65.9667C80.2444 66.717 76.7073 67.3213 72.9802 67.77C74.1746 65.8699 75.3311 63.946 76.449 61.9998C77.5857 60.0214 78.6782 58.0179 79.7261 55.9907ZM72.2678 59.5793C70.5564 62.5634 68.7485 65.4908 66.8474 68.357C63.4036 68.6018 59.9524 68.7234 56.5 68.7216C52.9836 68.7216 49.5635 68.6117 46.2698 68.3973C44.3191 65.5378 42.4768 62.6052 40.7471 59.6059L40.7476 59.6059C39.0259 56.6224 37.4175 53.5744 35.9263 50.4684C37.4138 47.3618 39.0171 44.3124 40.7329 41.3267L40.7324 41.3271C42.4475 38.3406 44.2751 35.4205 46.2112 32.5733C49.5713 32.3182 53.0171 32.1852 56.4995 32.1852L56.5 32.1852C59.9983 32.1852 63.4485 32.3195 66.8076 32.5764C68.7241 35.4194 70.54 38.3294 72.252 41.301C73.9736 44.2801 75.5981 47.3146 77.123 50.3998C75.6138 53.5165 73.9944 56.5782 72.2678 59.5793ZM82.2251 5.48053C86.0085 7.67059 87.4802 16.5023 85.103 28.0841C84.9512 28.823 84.7808 29.5756 84.5955 30.3389C79.9072 29.2527 74.8169 28.4451 69.4873 27.9432C66.3826 23.5059 63.1655 19.4717 59.936 15.9792C60.7825 15.1603 61.6489 14.3627 62.5349 13.5871C70.8767 6.30133 78.6731 3.42462 82.2251 5.48053ZM56.5 40.2263C62.0723 40.2263 66.5896 44.7602 66.5896 50.3528C66.5896 55.9455 62.0723 60.4794 56.5 60.4794C50.9277 60.4794 46.4102 55.9455 46.4102 50.3528C46.4102 44.7602 50.9277 40.2263 56.5 40.2263Z"
                  fill="#2D2C2C" fill-opacity="1.000000" fill-rule="nonzero"/>
        </g>
    </g>
    <g id="javascript">
        <defs>
            <clipPath id="clip2_5700">
                <rect width="120.000000" height="120.000000" fill="white" fill-opacity="0"/>
            </clipPath>
        </defs>
        <rect width="120.000000" height="120.000000" fill="#FFFFFF" fill-opacity="0"/>
        <g clip-path="url(#clip2_5700)">
            <path d="M7.5 7.5L112.5 7.5L112.5 112.5L7.5 112.5L7.5 7.5Z" fill="#2D2C2C" fill-opacity="1.000000"
                  fill-rule="nonzero"/>
            <path d="M78.0337 89.5312C78.9285 91.3485 80.3184 92.8759 82.0435 93.9375C83.7686 94.9991 85.7583 95.5515 87.7837 95.5312C91.8713 95.5312 94.4851 93.4875 94.4851 90.6562C94.4851 87.2812 91.8 86.0737 87.3 84.105L84.8325 83.0475C77.7075 80.0137 72.9824 76.215 72.9824 68.1825C72.9824 60.7838 78.6074 55.1475 87.4312 55.1475C90.2876 54.9412 93.1416 55.5805 95.637 56.9856C98.1326 58.3907 100.159 60.4995 101.464 63.0488L93.75 67.98C93.2476 66.7159 92.3728 65.6345 91.2417 64.879C90.1104 64.1236 88.7764 63.7299 87.4163 63.75C86.8228 63.6906 86.2236 63.7554 85.6567 63.9404C85.0896 64.1254 84.5676 64.4265 84.1233 64.8245C83.6792 65.2224 83.3228 65.7085 83.0769 66.2518C82.8311 66.7951 82.7009 67.3837 82.6951 67.98C82.6951 70.9388 84.5288 72.1387 88.7625 73.98L91.23 75.0375C99.615 78.6337 104.355 82.2975 104.355 90.5363C104.355 99.42 97.3762 104.287 88.0051 104.287C84.3538 104.52 80.7129 103.691 77.5222 101.901C74.3318 100.11 71.7273 97.4342 70.0237 94.1962L78.0337 89.5312ZM43.1775 90.3862C44.7263 93.135 46.1362 95.46 49.5264 95.46C52.7664 95.46 54.8137 94.1925 54.8137 89.2612L54.8137 55.71L64.6799 55.71L64.6799 89.3925C64.6799 99.6075 58.6799 104.258 49.9463 104.258C46.8591 104.426 43.7932 103.657 41.1514 102.051C38.5095 100.444 36.4158 98.0761 35.145 95.2575L43.1775 90.3862Z"
                  fill="#EBEBEB" fill-opacity="1.000000" fill-rule="nonzero"/>
        </g>
    </g>
    <g id="github">
        <defs>
            <clipPath id="clip2_5683">
                <rect width="88.000000" height="88.000000" fill="white" fill-opacity="0"/>
            </clipPath>
        </defs>
        <rect width="88.000000" height="88.000000" fill="#FFFFFF" fill-opacity="0"/>
        <g clip-path="url(#clip2_5683)">
            <path d="M44 0C19.6899 0 0 19.69 0 44C0 63.47 12.595 79.915 30.085 85.745C32.2849 86.13 33.1101 84.81 33.1101 83.655C33.1101 82.61 33.0549 79.145 33.0549 75.46C22 77.495 19.1399 72.765 18.26 70.29C17.7649 69.025 15.6201 65.12 13.75 64.075C12.21 63.25 10.01 61.215 13.6951 61.16C17.1599 61.105 19.635 64.35 20.46 65.67C24.4199 72.325 30.7451 70.455 33.2749 69.3C33.6599 66.44 34.8149 64.515 36.0801 63.415C26.29 62.315 16.0601 58.52 16.0601 41.69C16.0601 36.905 17.7649 32.945 20.5701 29.865C20.1299 28.765 18.5901 24.255 21.01 18.205C21.01 18.205 24.6951 17.05 33.1101 22.715C36.6299 21.725 40.3701 21.23 44.1101 21.23C47.8501 21.23 51.5901 21.725 55.1101 22.715C63.5249 16.995 67.21 18.205 67.21 18.205C69.6299 24.255 68.0901 28.765 67.6499 29.865C70.4551 32.945 72.1599 36.85 72.1599 41.69C72.1599 58.575 61.875 62.315 52.085 63.415C53.6799 64.79 55.0549 67.43 55.0549 71.555C55.0549 77.44 55 82.17 55 83.655C55 84.81 55.825 86.185 58.0249 85.745C66.7598 82.796 74.3496 77.1822 79.7268 69.6937C85.104 62.2052 87.9973 53.2191 88 44C88 19.69 68.3101 0 44 0Z"
                  fill="#2D2C2C" fill-opacity="1.000000" fill-rule="evenodd"/>
        </g>
    </g>
    <g id="typescript">
        <defs/>
        <path id="Vector" d="M0 52.5L0 105L52.5 105L105 105L105 52.5L105 0L52.5 0L0 0L0 52.5Z" fill="#2D2C2C"
              fill-opacity="1.000000" fill-rule="nonzero"/>
        <path id="Vector"
              d="M23.2202 52.8481L23.1869 57.1481L30.0203 57.1481L36.8535 57.1481L36.8535 76.5648L36.8535 95.9814L41.6869 95.9814L46.5203 95.9814L46.5203 76.5648L46.5203 57.1481L53.3535 57.1481L60.1869 57.1481L60.1869 52.9314C60.1869 50.5981 60.1368 48.6481 60.0702 48.5981C60.0203 48.5315 51.7036 48.4982 41.6202 48.5148L23.2703 48.5648L23.2202 52.8481Z"
              fill="#FFFFFF" fill-opacity="1.000000" fill-rule="nonzero"/>
        <path id="Vector"
              d="M84.7231 48.4432C87.3899 49.11 89.4232 50.2932 91.2898 52.2266C92.2565 53.2599 93.6898 55.1433 93.8065 55.5933C93.8398 55.7266 89.2732 58.7932 86.5065 60.5099C86.4065 60.5765 86.0065 60.1433 85.5565 59.4766C84.2065 57.5099 82.7898 56.6599 80.6232 56.5099C77.4398 56.2932 75.3899 57.96 75.4065 60.7433C75.4065 61.5599 75.5232 62.0432 75.8564 62.71C76.5565 64.1599 77.8564 65.0266 81.9398 66.7932C89.4565 70.0266 92.6732 72.1599 94.6732 75.1932C96.9065 78.5765 97.4065 83.9766 95.8899 87.9933C94.2231 92.36 90.0898 95.3265 84.2732 96.3099C82.4731 96.6266 78.2065 96.5765 76.2732 96.2266C72.0565 95.4766 68.0565 93.3933 65.5898 90.6599C64.6232 89.5933 62.7399 86.8099 62.8564 86.61C62.9065 86.5432 63.3398 86.2766 63.8231 85.9933C64.2898 85.7266 66.0565 84.71 67.7231 83.7433L70.7399 81.9933L71.3732 82.9266C72.2565 84.2766 74.1898 86.1266 75.3564 86.7433C78.7065 88.5099 83.3065 88.2599 85.5731 86.2266C86.5398 85.3433 86.9398 84.4266 86.9398 83.0765C86.9398 81.86 86.7898 81.3265 86.1565 80.4099C85.3398 79.2433 83.6732 78.2599 78.9398 76.21C73.5232 73.8766 71.1898 72.4266 69.0565 70.1266C67.8231 68.7932 66.6565 66.6599 66.1732 64.8766C65.7732 63.3933 65.6732 59.6766 65.9899 58.1766C67.1064 52.9432 71.0565 49.2932 76.7565 48.21C78.6064 47.86 82.9065 47.9933 84.7231 48.4432Z"
              fill="#FFFFFF" fill-opacity="1.000000" fill-rule="nonzero"/>
    </g>
    <g id="leftArr">
        <path id="" d="M5.74219 21.875L26.25 2.59766L23.3789 0L0 21.875L23.3789 43.75L26.25 41.1523L5.74219 21.875Z"
              fill="#737373" fill-opacity="1.000000" fill-rule="evenodd"/>
    </g>
    <g id="rightArr">
        <path id="" d="M2.87109 0L0 2.59766L20.5078 21.875L0 41.1523L2.87109 43.75L26.25 21.875L2.87109 0Z"
              fill="#A9A9A9" fill-opacity="1.000000" fill-rule="evenodd"/>
    </g>
</svg>
