<svg width="24.000000" height="24.000000" viewBox="0 0 24 24" fill="none" xmlns="http://www.w3.org/2000/svg"
     xmlns:xlink="http://www.w3.org/1999/xlink">
    <g id="instagram">
        <desc>
            Created with Pixso.
        </desc>
        <defs>
            <clipPath id="clip11_6563">
                <rect id="Instagram" width="24.000000" height="24.000000" fill="white" fill-opacity="0"/>
            </clipPath>
        </defs>
        <rect id="Instagram" width="24.000000" height="24.000000" fill="#FFFFFF" fill-opacity="0"/>
        <g clip-path="url(#clip11_6563)">
            <path id="Vector"
                  d="M16 3L8 3C5.23859 3 3 5.23853 3 8L3 16C3 18.7615 5.23859 21 8 21L16 21C18.7614 21 21 18.7615 21 16L21 8C21 5.23853 18.7614 3 16 3ZM19.25 16C19.2445 17.7925 17.7926 19.2444 16 19.25L8 19.25C6.20734 19.2444 4.75549 17.7925 4.75 16L4.75 8C4.75549 6.20728 6.20734 4.75537 8 4.75L16 4.75C17.7926 4.75537 19.2445 6.20728 19.25 8L19.25 16ZM16.75 8.25C17.3023 8.25 17.75 7.80225 17.75 7.25C17.75 6.69775 17.3023 6.25 16.75 6.25C16.1977 6.25 15.75 6.69775 15.75 7.25C15.75 7.80225 16.1977 8.25 16.75 8.25ZM12 7.5C9.51471 7.5 7.5 9.51465 7.5 12C7.5 14.4854 9.51471 16.5 12 16.5C14.4853 16.5 16.5 14.4854 16.5 12C16.5027 10.8057 16.0294 9.65967 15.1849 8.81519C14.3404 7.9707 13.1943 7.49731 12 7.5ZM9.25 12C9.25 13.5188 10.4812 14.75 12 14.75C13.5188 14.75 14.75 13.5188 14.75 12C14.75 10.4812 13.5188 9.25 12 9.25C10.4812 9.25 9.25 10.4812 9.25 12Z"
                  fill="#000000" fill-opacity="1.000000" fill-rule="evenodd"/>
        </g>
    </g>
    <g id="linkenId">
        <desc>
            Created with Pixso.
        </desc>
        <defs>
            <clipPath id="clip11_6567">
                <rect id="LinkedIn" width="24.000000" height="24.000000" fill="white" fill-opacity="0"/>
            </clipPath>
        </defs>
        <rect id="LinkedIn" width="24.000000" height="24.000000" fill="#FFFFFF" fill-opacity="0"/>
        <g clip-path="url(#clip11_6567)">
            <path id="Vector"
                  d="M5 3L19 3C20.1046 3 21 3.89551 21 5L21 19C21 20.1045 20.1046 21 19 21L5 21C3.89545 21 3 20.1045 3 19L3 5C3 3.89551 3.89545 3 5 3ZM8 18C8.27612 18 8.5 17.7761 8.5 17.5L8.5 10.5C8.5 10.2239 8.27612 10 8 10L6.5 10C6.22388 10 6 10.2239 6 10.5L6 17.5C6 17.7761 6.22388 18 6.5 18L8 18ZM7.25 9C6.42157 9 5.75 8.32837 5.75 7.5C5.75 6.67163 6.42157 6 7.25 6C8.07843 6 8.75 6.67163 8.75 7.5C8.75 8.32837 8.07843 9 7.25 9ZM17.5 18C17.7761 18 18 17.7761 18 17.5L18 12.8999C18.0325 11.3108 16.8576 9.95459 15.28 9.76001C14.177 9.65918 13.1083 10.1743 12.5 11.1001L12.5 10.5C12.5 10.2239 12.2761 10 12 10L10.5 10C10.2239 10 10 10.2239 10 10.5L10 17.5C10 17.7761 10.2239 18 10.5 18L12 18C12.2761 18 12.5 17.7761 12.5 17.5L12.5 13.75C12.5 12.9216 13.1716 12.25 14 12.25C14.8284 12.25 15.5 12.9216 15.5 13.75L15.5 17.5C15.5 17.7761 15.7239 18 16 18L17.5 18Z"
                  fill="#000000" fill-opacity="1.000000" fill-rule="evenodd"/>
        </g>
    </g>
    <g id="twitter">
        <desc>
            Created with Pixso.
        </desc>
        <defs>
            <clipPath id="clip11_6565">
                <rect id="Twitter" width="24.000000" height="24.000000" fill="white" fill-opacity="0"/>
            </clipPath>
        </defs>
        <rect id="Twitter" width="24.000000" height="24.000000" fill="#FFFFFF" fill-opacity="0"/>
        <g clip-path="url(#clip11_6565)">
            <path id="Vector"
                  d="M20.9728 6.71729C20.5084 7.33691 19.947 7.87744 19.3103 8.31787C19.3103 8.47949 19.3103 8.64136 19.3103 8.81226C19.3154 11.7512 18.1415 14.5691 16.0518 16.6345C13.962 18.7 11.1312 19.8398 8.19403 19.7988C6.49597 19.8047 4.8197 19.417 3.29645 18.666C3.21429 18.6301 3.16132 18.5491 3.16162 18.4592L3.16162 18.3604C3.16162 18.2312 3.26624 18.1267 3.39526 18.1267C5.06439 18.0715 6.67401 17.4929 7.99634 16.4724C6.48553 16.4419 5.12622 15.5469 4.50061 14.1707C4.46899 14.0957 4.47882 14.0093 4.52655 13.9431C4.57428 13.8772 4.65302 13.8408 4.73425 13.8472C5.19342 13.8933 5.65717 13.8506 6.10022 13.7212C4.43237 13.375 3.1792 11.9905 2.99988 10.2957C2.99347 10.2144 3.02991 10.1357 3.09601 10.0879C3.16205 10.0403 3.24823 10.0303 3.32336 10.062C3.77094 10.2595 4.25409 10.3635 4.74323 10.3677C3.28186 9.40845 2.65063 7.58398 3.20654 5.92627C3.26392 5.76514 3.40179 5.64624 3.56952 5.61304C3.73718 5.57983 3.90997 5.63721 4.02429 5.7644C5.9964 7.86328 8.70605 9.11401 11.5819 9.25269C11.5083 8.95874 11.4721 8.65674 11.4741 8.35376C11.501 6.76465 12.4842 5.34912 13.9634 4.76978C15.4425 4.19043 17.1249 4.56201 18.223 5.71045C18.9714 5.56787 19.695 5.31641 20.3707 4.96411C20.4202 4.93335 20.483 4.93335 20.5325 4.96411C20.5634 5.01367 20.5634 5.07642 20.5325 5.12598C20.2052 5.87549 19.6523 6.50415 18.9509 6.92407C19.5651 6.85303 20.1685 6.70801 20.7482 6.49268C20.797 6.45947 20.8611 6.45947 20.9099 6.49268C20.9508 6.51123 20.9814 6.54712 20.9935 6.59033C21.0056 6.63379 20.998 6.68018 20.9728 6.71729Z"
                  fill="#000000" fill-opacity="1.000000" fill-rule="nonzero"/>
        </g>
        <g id="facebook">
            <desc>
                Created with Pixso.
            </desc>
            <defs/>
            <path id="Vector"
                  d="M9.5 3L6.5 3C5.94769 3 5.5 3.44775 5.5 4L5.5 7L9.5 7C9.61371 6.99756 9.72162 7.05029 9.78918 7.14185C9.85681 7.2334 9.87579 7.35205 9.84003 7.45996L9.09998 9.65991C9.0318 9.86182 8.84308 9.99829 8.63 10L5.5 10L5.5 17.5C5.5 17.7761 5.27612 18 5 18L2.5 18C2.22388 18 2 17.7761 2 17.5L2 10L0.5 10C0.223877 10 0 9.77612 0 9.5L0 7.5C0 7.22388 0.223877 7 0.5 7L2 7L2 4C2 1.79077 3.79089 0 6 0L9.5 0C9.77612 0 10 0.223877 10 0.5L10 2.5C10 2.77612 9.77612 3 9.5 3Z"
                  fill="#000000" fill-opacity="1.000000" fill-rule="nonzero"/>
        </g>
    </g>

</svg>


