<svg width="13.500000" height="13.500000" viewBox="0 0 13.5 13.5" fill="none" xmlns="http://www.w3.org/2000/svg" xmlns:xlink="http://www.w3.org/1999/xlink">
	<desc>
			Created with Pixso.
	</desc>
	<defs/>
	<path id="" d="M12.8598 0.0909302Q12.6552 0 12.4102 0L1.16016 0Q0.876007 0 0.638727 0.105458Q0.465005 0.182667 0.316406 0.316406Q0.194023 0.425192 0.118976 0.560275Q0 0.774433 0 1.05469L0 12.3398Q0 12.5034 0.0450069 12.6534Q0.125788 12.9227 0.351562 13.1484Q0.577336 13.3742 0.846608 13.455Q0.996631 13.5 1.16016 13.5L12.4102 13.5Q12.615 13.5 12.7916 13.4294Q13.009 13.3424 13.1836 13.1484Q13.3629 12.9492 13.4406 12.7161Q13.5 12.5379 13.5 12.3398L13.5 1.05469Q13.5 0.774433 13.381 0.560275Q13.306 0.425192 13.1836 0.316406Q13.0368 0.16962 12.8598 0.0909302ZM2.69572 4.1742Q2.60709 4.11881 2.53125 4.04297Q2.3887 3.8826 2.3184 3.69513Q2.25 3.51274 2.25 3.30469Q2.25 2.9709 2.40002 2.73087Q2.45541 2.64225 2.53125 2.56641Q2.67804 2.41962 2.85509 2.34093Q3.05968 2.25 3.30469 2.25Q3.58494 2.25 3.7991 2.36898Q3.93418 2.44402 4.04297 2.56641Q4.11881 2.64225 4.1742 2.73087Q4.32422 2.9709 4.32422 3.30469Q4.32422 3.47344 4.27359 3.62531Q4.19766 3.85313 4.00781 4.04297Q3.93197 4.11881 3.84334 4.1742Q3.60332 4.32422 3.26953 4.32422Q2.93574 4.32422 2.69572 4.1742ZM11.25 7.73438L11.25 11.25L9.31641 11.25L9.31641 7.94531Q9.31641 7.1182 8.91841 6.81701Q8.69049 6.64453 8.33203 6.64453Q8.02183 6.64453 7.79374 6.78139Q7.50483 6.95473 7.34766 7.34766Q7.27734 7.48828 7.27734 7.83984L7.27734 11.25L5.34375 11.25L5.34375 5.23828L7.27734 5.23828L7.27734 6.08203Q7.74185 5.43172 8.35979 5.21103Q8.67723 5.09766 9.03516 5.09766Q9.66418 5.09766 10.1353 5.37041Q10.4014 5.52449 10.6172 5.76562Q11.25 6.43359 11.25 7.73438ZM4.18359 5.23828L4.18359 11.25L2.25 11.25L2.25 5.23828L4.18359 5.23828Z" fill="#8C8C8C" fill-opacity="1.000000" fill-rule="evenodd"/>
</svg>
