<svg width="20.000000" height="20.000000" viewBox="0 0 20 20" fill="none" xmlns="http://www.w3.org/2000/svg" xmlns:xlink="http://www.w3.org/1999/xlink">
	<desc>
			Created with Pixso.
	</desc>
	<defs>
		<clipPath id="clip2_5958">
			<rect id="akar-icons:link-chain" width="20.000000" height="20.000000" fill="white" fill-opacity="0"/>
		</clipPath>
	</defs>
	<rect id="akar-icons:link-chain" width="20.000000" height="20.000000" fill="#FFFFFF" fill-opacity="0"/>
	<g clip-path="url(#clip2_5958)">
		<path id="Vector" d="M11.2866 8.71329C10.6041 8.03101 9.67847 7.64771 8.71338 7.64771C7.74817 7.64771 6.82263 8.03101 6.14001 8.71329L3.5658 11.2866C2.88318 11.9692 2.49976 12.8951 2.49976 13.8604C2.49976 14.8257 2.88318 15.7515 3.5658 16.4341C4.24841 17.1167 5.17419 17.5002 6.13965 17.5002C7.10498 17.5002 8.03076 17.1167 8.71338 16.4341L10 15.1475" stroke="#FCFCFC" stroke-opacity="1.000000" stroke-width="1.666667" stroke-linejoin="round" stroke-linecap="round"/>
		<path id="Vector" d="M8.71338 11.2867C9.396 11.969 10.3215 12.3523 11.2867 12.3523C12.2518 12.3523 13.1775 11.969 13.86 11.2867L16.4342 8.71335C17.1168 8.03073 17.5002 7.10492 17.5002 6.13959C17.5002 5.17426 17.1168 4.24844 16.4342 3.56583C15.7516 2.88324 14.8258 2.49976 13.8605 2.49976C12.8951 2.49976 11.9694 2.88324 11.2867 3.56583L10 4.85251" stroke="#FCFCFC" stroke-opacity="1.000000" stroke-width="1.666667" stroke-linejoin="round" stroke-linecap="round"/>
	</g>
</svg>
