<svg width="16.593750" height="13.500000" viewBox="0 0 16.5938 13.5" fill="none" xmlns="http://www.w3.org/2000/svg" xmlns:xlink="http://www.w3.org/1999/xlink">
	<desc>
			Created with Pixso.
	</desc>
	<defs/>
	<path id="" d="M14.9062 3.375Q15.9609 2.60156 16.5938 1.61719Q15.7148 2.03906 14.625 2.14453Q15.2974 1.75736 15.6982 1.18122Q15.9889 0.763361 16.1367 0.246094Q15.0117 0.914062 13.957 1.08984Q13.3914 0.485252 12.696 0.216058Q12.1379 0 11.4961 0Q10.6899 0 10.0267 0.307914Q9.50414 0.550548 9.07031 0.984375Q8.63649 1.4182 8.39385 1.9408Q8.08594 2.604 8.08594 3.41016Q8.08594 3.9375 8.15625 4.18359Q6.01905 4.07849 4.27466 3.19649Q2.5183 2.30844 1.16016 0.632812Q0.835215 1.20771 0.741301 1.81815Q0.703125 2.06629 0.703125 2.32031Q0.703125 3.31823 1.13674 4.06405Q1.51276 4.7108 2.21484 5.16797Q1.44141 5.16797 0.667969 4.74609L0.667969 4.78125Q0.667969 5.40996 0.869889 5.96524Q1.06316 6.49672 1.44141 6.96094Q1.90446 7.48439 2.48281 7.78879Q2.91438 8.01593 3.41016 8.12109Q2.84766 8.26172 2.49609 8.26172Q2.28516 8.26172 1.86328 8.19141Q1.99304 8.60953 2.21741 8.96852Q2.54014 9.48488 3.05859 9.87891Q3.48047 10.1827 3.95094 10.3487Q4.46063 10.5286 5.02734 10.5469Q4.05578 11.3168 2.95039 11.6853Q1.93586 12.0234 0.808594 12.0234Q0.5625 12.0234 0 11.9531Q1.28726 12.7861 2.69684 13.1705Q3.90505 13.5 5.20312 13.5Q8.02737 13.5 10.1256 12.2658Q11.2922 11.5795 12.2344 10.5117Q14.0377 8.47113 14.6239 6.12627Q14.9062 4.99687 14.9062 3.79688L14.9062 3.375Z" fill="#8C8C8C" fill-opacity="1.000000" fill-rule="evenodd"/>
</svg>
