<svg width="20.000000" height="20.000000" viewBox="0 0 20 20" fill="none" xmlns="http://www.w3.org/2000/svg" xmlns:xlink="http://www.w3.org/1999/xlink">
	<desc>
			Created with Pixso.
	</desc>
	<defs>
		<clipPath id="clip2_5974">
			<rect id="akar-icons:github-fill" width="20.000000" height="20.000000" fill="white" fill-opacity="0"/>
		</clipPath>
	</defs>
	<rect id="akar-icons:github-fill" width="20.000000" height="20.000000" fill="#FFFFFF" fill-opacity="0"/>
	<g clip-path="url(#clip2_5974)">
		<path id="Vector" d="M10 0C4.47498 0 0 4.47501 0 10C0 14.425 2.86255 18.1625 6.83752 19.4875C7.33752 19.575 7.52502 19.275 7.52502 19.0125C7.52502 18.775 7.51245 17.9875 7.51245 17.15C5 17.6125 4.34998 16.5375 4.15002 15.975C4.03748 15.6875 3.55005 14.8 3.125 14.5625C2.77502 14.375 2.27502 13.9125 3.11255 13.9C3.90002 13.8875 4.46252 14.625 4.65002 14.925C5.55005 16.4375 6.98755 16.0125 7.5625 15.75C7.65002 15.1 7.91248 14.6625 8.19995 14.4125C5.97498 14.1625 3.65002 13.3 3.65002 9.47501C3.65002 8.38751 4.03748 7.48749 4.67505 6.78751C4.57495 6.53751 4.22498 5.51251 4.77502 4.13751C4.77502 4.13751 5.61255 3.875 7.52502 5.16251C8.32495 4.9375 9.17505 4.82501 10.025 4.82501C10.875 4.82501 11.725 4.9375 12.525 5.16251C14.4375 3.86249 15.275 4.13751 15.275 4.13751C15.825 5.51251 15.475 6.53751 15.375 6.78751C16.0125 7.48749 16.4 8.375 16.4 9.47501C16.4 13.3125 14.0625 14.1625 11.8375 14.4125C12.2 14.725 12.5125 15.325 12.5125 16.2625C12.5125 17.6 12.5 18.675 12.5 19.0125C12.5 19.275 12.6875 19.5875 13.1875 19.4875C15.1726 18.8173 16.8977 17.5414 18.1198 15.8395C19.3418 14.1375 19.9994 12.0952 20 10C20 4.47501 15.525 0 10 0Z" fill="#FFFFFF" fill-opacity="1.000000" fill-rule="evenodd"/>
	</g>
</svg>
